<svg xmlns="http://www.w3.org/2000/svg" viewBox="0 0 178.66 29.07"><path d="M23.29 3.55V.46h3.57v8.98h-3.64c-.92-1.8-2.18-3.2-3.78-4.2-1.6-1-3.35-1.51-5.26-1.51s-3.5.49-4.95 1.46c-1.45.97-2.58 2.28-3.39 3.91-.81 1.63-1.22 3.38-1.22 5.25s.42 3.72 1.27 5.36c.85 1.64 2.02 2.95 3.51 3.92 1.49.98 3.14 1.47 4.96 1.47 2.24 0 4.23-.68 5.95-2.05 1.72-1.37 2.98-3.31 3.78-5.83l3.57 1.9c-.97 3.12-2.67 5.54-5.12 7.26-2.45 1.72-5.32 2.58-8.62 2.58-2.71 0-5.13-.65-7.23-1.94s-3.75-3.04-4.92-5.23S.01 17.2.01 14.58c0-2.84.6-5.37 1.79-7.59s2.84-3.94 4.95-5.16C8.86.61 11.27 0 13.99 0c1.82 0 3.5.3 5.04.91 1.54.61 2.96 1.49 4.26 2.64Zm22.58 4.87c3.63 0 5.45 1.97 5.45 5.9v10.75h3.31v3.42h-7.16V15.7c0-1.4-.2-2.39-.6-2.96-.4-.57-1.03-.86-1.87-.86-1.43 0-3.28.84-5.56 2.51v10.68h3.38v3.42H32.09v-3.42h3.5V3.85h-3.5V.46h7.35v10.77c2.31-1.87 4.45-2.81 6.43-2.81Zm33.34 10.33c0 1.9-.45 3.63-1.36 5.21-.91 1.58-2.14 2.82-3.7 3.74-1.56.92-3.29 1.38-5.19 1.38s-3.73-.46-5.3-1.38c-1.58-.92-2.8-2.16-3.67-3.74-.87-1.57-1.31-3.31-1.31-5.21s.44-3.76 1.31-5.32 2.09-2.79 3.66-3.67c1.56-.89 3.33-1.33 5.32-1.33s3.66.47 5.23 1.4c1.56.94 2.79 2.19 3.68 3.77.89 1.57 1.34 3.29 1.34 5.15Zm-10.25 6.58c1.14 0 2.19-.3 3.14-.89.95-.59 1.7-1.39 2.23-2.4.53-1 .8-2.1.8-3.29s-.27-2.25-.8-3.25-1.28-1.81-2.23-2.43c-.96-.61-2.02-.92-3.18-.92s-2.19.3-3.14.9c-.96.6-1.71 1.41-2.25 2.43s-.82 2.11-.82 3.27.27 2.26.82 3.27 1.3 1.82 2.27 2.42c.97.6 2.02.89 3.16.89Zm30.13-14.97V8.95h3.42v7.4h-3.42c-.15-1.43-.72-2.51-1.71-3.26s-2.14-1.12-3.44-1.12c-1.12 0-2.12.3-3 .89-.89.59-1.57 1.4-2.06 2.42s-.72 2.13-.72 3.33c0 2.05.54 3.72 1.64 5.01 1.09 1.3 2.53 1.94 4.32 1.94 2.76 0 4.72-1.28 5.86-3.85l3.2 1.52c-1.8 3.89-4.87 5.84-9.22 5.84-1.95 0-3.68-.46-5.19-1.38-1.51-.92-2.68-2.18-3.51-3.78s-1.24-3.37-1.24-5.32.42-3.64 1.25-5.21 1.99-2.78 3.45-3.65 3.09-1.31 4.89-1.31c2.13 0 3.96.65 5.49 1.93Zm28.88 8.39c0 1.9-.45 3.63-1.36 5.21-.91 1.58-2.14 2.82-3.7 3.74-1.56.92-3.29 1.38-5.19 1.38s-3.73-.46-5.3-1.38c-1.57-.92-2.8-2.16-3.67-3.74-.87-1.57-1.31-3.31-1.31-5.21s.44-3.76 1.31-5.32 2.09-2.79 3.65-3.67c1.56-.89 3.33-1.33 5.32-1.33s3.66.47 5.23 1.4c1.56.94 2.79 2.19 3.68 3.77.89 1.57 1.34 3.29 1.34 5.15Zm-10.25 6.58c1.14 0 2.19-.3 3.14-.89.96-.59 1.7-1.39 2.23-2.4.53-1 .8-2.1.8-3.29s-.27-2.25-.8-3.25-1.28-1.81-2.23-2.43c-.95-.61-2.01-.92-3.18-.92s-2.19.3-3.14.9c-.95.6-1.7 1.41-2.25 2.43s-.82 2.11-.82 3.27.27 2.26.82 3.27 1.3 1.82 2.27 2.42c.97.6 2.02.89 3.16.89Zm33.67-9.99v9.73h3.27v3.42h-7.12V15.58c0-1.23-.18-2.11-.53-2.64s-.93-.8-1.74-.8c-1.71 0-3.63.84-5.77 2.53v10.4h3.37v3.42h-10.6v-3.42h3.44V12.39h-3.44V8.95h7.23v2.36c2.39-1.75 4.64-2.62 6.75-2.62 1.75 0 3.04.54 3.88 1.62.84 1.08 1.26 2.76 1.26 5.04Zm24 .51v9.22h3.27v3.42H172v-2.4c-1.86 1.82-3.93 2.73-6.21 2.73-1.2 0-2.3-.28-3.3-.84-1-.56-1.8-1.3-2.4-2.24-.6-.94-.9-1.97-.9-3.12 0-1.23.33-2.32.99-3.28s1.56-1.7 2.69-2.22 2.26-.78 3.4-.78c1.91 0 3.69.56 5.34 1.67v-2.1c0-1.53-.32-2.62-.97-3.27-.65-.66-1.71-.99-3.18-.99-1.04 0-1.91.19-2.61.57-.7.38-1.28.95-1.74 1.72l-3.68-.91c.83-1.55 1.95-2.71 3.37-3.47 1.41-.76 3.09-1.14 5.04-1.14 2.62 0 4.53.6 5.74 1.79s1.81 3.07 1.81 5.64Zm-9.08 10.02c1.88 0 3.65-.79 5.3-2.36v-2.29c-1.67-1.3-3.35-1.95-5.02-1.95-1.02 0-1.89.32-2.63.96-.74.64-1.11 1.44-1.11 2.41s.32 1.7.97 2.32c.64.61 1.47.92 2.49.92Z" style="fill:#fff;stroke-width:0"/></svg>