<svg width="1000" height="306" fill="none" xmlns="http://www.w3.org/2000/svg"><path d="M42.42.69H0v42.42h42.42V.69Z" fill="#BA3D4A"/><path d="M92.87.69H50.45v42.42h42.42V.69Z" fill="#70201F"/><path d="M143.31.69h-42.42v42.42h42.42V.69Z" fill="#E289B1"/><path d="M193.76.69h-42.42v42.42h42.42V.69Z" fill="#A33450"/><path d="M244.21.69h-42.42v42.42h42.42V.69Z" fill="#B93342"/><path d="M294.05.69h-42.42v42.42h42.42V.69Z" fill="#EA8B45"/><path d="M344.5.69h-42.42v42.42h42.42V.69Z" fill="#F6DE49"/><path d="M394.95.69h-42.42v42.42h42.42V.69Z" fill="#F3D000"/><path d="M445.39.69h-42.42v42.42h42.42V.69Z" fill="#F5B92B"/><path d="M495.84.69h-42.42v42.42h42.42V.69Z" fill="#00885C"/><path d="M546.73.69h-42.42v42.42h42.42V.69Z" fill="#2DA840"/><path d="M597.18.69h-42.42v42.42h42.42V.69Z" fill="#414874"/><path d="M647.63.69h-42.42v42.42h42.42V.69Z" fill="#252A74"/><path d="M698.07.69h-42.42v42.42h42.42V.69Z" fill="#004C79"/><path d="M748.52.69H706.1v42.42h42.42V.69Z" fill="#004E8B"/><path d="M798.36.69h-42.42v42.42h42.42V.69Z" fill="#C11D26"/><path d="M848.81.69h-42.42v42.42h42.42V.69Z" fill="#C9362C"/><path d="M899.26.69h-42.42v42.42h42.42V.69Z" fill="#CE1A6F"/><path d="M949.71.69h-42.42v42.42h42.42V.69Z" fill="#981E23"/><path d="M42.42 53.72H0v42.42h42.42V53.72Z" fill="#E8CC1E"/><path d="M999.87 0h-42.42v42.42h42.42V0Z" fill="#DE6F31"/><path d="M92.87 53.72H50.45v42.42h42.42V53.72Z" fill="#F0AD29"/><path d="M143.31 53.72h-42.42v42.42h42.42V53.72Z" fill="#1AA691"/><path d="M193.76 53.72h-42.42v42.42h42.42V53.72Z" fill="#0FA680"/><path d="M244.21 53.72h-42.42v42.42h42.42V53.72Z" fill="#6DB72C"/><path d="M294.05 53.72h-42.42v42.42h42.42V53.72Z" fill="#CBCD5B"/><path d="M344.5 53.72h-42.42v42.42h42.42V53.72Z" fill="#0F72AF"/><path d="M394.95 53.72h-42.42v42.42h42.42V53.72Z" fill="#2F9FC6"/><path d="M445.39 53.72h-42.42v42.42h42.42V53.72Z" fill="#1B2C75"/><path d="M495.84 53.72h-42.42v42.42h42.42V53.72Z" fill="#2F9FC6"/><path d="M546.73 53.72h-42.42v42.42h42.42V53.72Z" fill="#B13B8E"/><path d="M597.18 53.72h-42.42v42.42h42.42V53.72Z" fill="#891D76"/><path d="M647.63 53.72h-42.42v42.42h42.42V53.72Z" fill="#66598A"/><path d="M698.07 53.72h-42.42v42.42h42.42V53.72Z" fill="#E47D60"/><path d="M748.52 53.72H706.1v42.42h42.42V53.72Z" fill="#D78172"/><path d="M798.36 53.72h-42.42v42.42h42.42V53.72Z" fill="#DB7E86"/><path d="M848.81 53.72h-42.42v42.42h42.42V53.72Z" fill="#E57C36"/><path d="M899.26 53.72h-42.42v42.42h42.42V53.72Z" fill="#804C23"/><path d="M949.71 53.72h-42.42v42.42h42.42V53.72Z" fill="#E6CE43"/><path d="M999.59 53.06h-42.42v42.42h42.42V53.06Z" fill="#F4DA6A"/><path d="M999.87 105.75h-42.42v42.42h42.42v-42.42Z" fill="#FBECEB"/><path d="M999.59 158.81h-42.42v42.42h42.42v-42.42Z" fill="#BFBBB0"/><path d="M999.59 209.35h-42.42v42.42h42.42v-42.42Z" fill="#F7F9F8"/><path d="M42.42 105.76H0v42.42h42.42v-42.42Z" fill="#D3B96D"/><path d="M92.87 105.76H50.45v42.42h42.42v-42.42Z" fill="#B4D9A8"/><path d="M143.31 105.76h-42.42v42.42h42.42v-42.42Z" fill="#51AD82"/><path d="M193.76 105.76h-42.42v42.42h42.42v-42.42Z" fill="#A0D7E2"/><path d="M244.21 105.76h-42.42v42.42h42.42v-42.42Z" fill="#BB7CB0"/><path d="M294.05 105.76h-42.42v42.42h42.42v-42.42Z" fill="#8D89A0"/><path d="M344.5 105.76h-42.42v42.42h42.42v-42.42Z" fill="#D2C8E1"/><path d="M394.95 105.76h-42.42v42.42h42.42v-42.42Z" fill="#A8CCCA"/><path d="M445.39 105.76h-42.42v42.42h42.42v-42.42Z" fill="#CAA87D"/><path d="M495.84 105.76h-42.42v42.42h42.42v-42.42Z" fill="#E8E6E7"/><path d="M546.73 105.76h-42.42v42.42h42.42v-42.42Z" fill="#F5D7AA"/><path d="M597.18 105.76h-42.42v42.42h42.42v-42.42Z" fill="#E9E7DF"/><path d="M647.63 105.76h-42.42v42.42h42.42v-42.42Z" fill="#F7F4E1"/><path d="M698.07 105.76h-42.42v42.42h42.42v-42.42Z" fill="#FCF4EA"/><path d="M748.52 105.76H706.1v42.42h42.42v-42.42Z" fill="#FBF9E4"/><path d="M798.36 105.76h-42.42v42.42h42.42v-42.42Z" fill="#FAF2E2"/><path d="M848.81 105.76h-42.42v42.42h42.42v-42.42Z" fill="#F7F1E3"/><path d="M899.26 105.76h-42.42v42.42h42.42v-42.42Z" fill="#FFFDF2"/><path d="M949.71 105.76h-42.42v42.42h42.42v-42.42Z" fill="#EAECF6"/><path d="M42.42 158.76H0v42.42h42.42v-42.42Z" fill="#DEEFE9"/><path d="M92.87 158.76H50.45v42.42h42.42v-42.42Z" fill="#79A2BE"/><path d="M143.31 158.76h-42.42v42.42h42.42v-42.42Z" fill="#E3F2FA"/><path d="M193.76 158.76h-42.42v42.42h42.42v-42.42Z" fill="#FFFCF8"/><path d="M244.21 158.76h-42.42v42.42h42.42v-42.42Z" fill="#FDF8F6"/><path d="M294.05 158.76h-42.42v42.42h42.42v-42.42Z" fill="#B6B3AB"/><path d="M344.5 158.76h-42.42v42.42h42.42v-42.42Z" fill="#B1AE7B"/><path d="M394.95 158.76h-42.42v42.42h42.42v-42.42Z" fill="#D7A875"/><path d="M445.39 158.76h-42.42v42.42h42.42v-42.42Z" fill="#822C3C"/><path d="M495.84 158.76h-42.42v42.42h42.42v-42.42Z" fill="#E6CAA1"/><path d="M546.73 158.76h-42.42v42.42h42.42v-42.42Z" fill="#D0BDBA"/><path d="M597.18 158.76h-42.42v42.42h42.42v-42.42Z" fill="#CFBA2B"/><path d="M647.63 158.76h-42.42v42.42h42.42v-42.42Z" fill="#98AC9B"/><path d="M698.07 158.76h-42.42v42.42h42.42v-42.42Z" fill="#4CA497"/><path d="M748.52 158.76H706.1v42.42h42.42v-42.42Z" fill="#777C55"/><path d="M798.36 158.76h-42.42v42.42h42.42v-42.42Z" fill="#465B85"/><path d="M848.81 158.76h-42.42v42.42h42.42v-42.42Z" fill="#667286"/><path d="M899.26 158.76h-42.42v42.42h42.42v-42.42Z" fill="#1F98C7"/><path d="M949.71 158.76h-42.42v42.42h42.42v-42.42Z" fill="#72516C"/><path d="M42.42 210.8H0v42.42h42.42V210.8Z" fill="#A4926E"/><path d="M92.87 210.8H50.45v42.42h42.42V210.8Z" fill="#3A5867"/><path d="M143.31 210.8h-42.42v42.42h42.42V210.8Z" fill="#3E3E43"/><path d="M193.76 210.8h-42.42v42.42h42.42V210.8Z" fill="#3A302F"/><path d="M244.21 210.8h-42.42v42.42h42.42V210.8Z" fill="#695A5C"/><path d="M294.05 210.8h-42.42v42.42h42.42V210.8Z" fill="#3A2625"/><path d="M344.5 210.8h-42.42v42.42h42.42V210.8Z" fill="#43171E"/><path d="M394.95 210.8h-42.42v42.42h42.42V210.8Z" fill="#725E67"/><path d="M445.39 210.8h-42.42v42.42h42.42V210.8Z" fill="#27301B"/><path d="M495.84 210.8h-42.42v42.42h42.42V210.8Z" fill="#1F1A38"/><path d="M546.73 210.8h-42.42v42.42h42.42V210.8Z" fill="#213E64"/><path d="M597.18 210.8h-42.42v42.42h42.42V210.8Z" fill="#324E42"/><path d="M647.63 210.8h-42.42v42.42h42.42V210.8Z" fill="#234926"/><path d="M698.07 210.8h-42.42v42.42h42.42V210.8Z" fill="#30402E"/><path d="M748.52 210.8H706.1v42.42h42.42V210.8Z" fill="#615525"/><path d="M798.36 210.8h-42.42v42.42h42.42V210.8Z" fill="#373D50"/><path d="M848.81 210.8h-42.42v42.42h42.42V210.8Z" fill="#FFFFFD"/><path d="M899.26 210.8h-42.42v42.42h42.42V210.8Z" fill="#FFFFFB"/><path d="M949.71 210.8h-42.42v42.42h42.42V210.8Z" fill="#FFFDFD"/><path d="M42.42 263.34H0v42.42h42.42v-42.42Z" fill="#C8CBC4"/><path d="M92.87 263.34H50.45v42.42h42.42v-42.42Z" fill="#D2D2D3"/><path d="M143.31 263.34h-42.42v42.42h42.42v-42.42Z" fill="#BBBCC0"/><path d="M193.76 263.34h-42.42v42.42h42.42v-42.42Z" fill="#9A9EA1"/><path d="M244.21 263.34h-42.42v42.42h42.42v-42.42Z" fill="#9496A1"/><path d="M294.05 263.34h-42.42v42.42h42.42v-42.42Z" fill="#7A8089"/><path d="M344.5 263.34h-42.42v42.42h42.42v-42.42Z" fill="#030103"/><path d="M394.95 263.34h-42.42v42.42h42.42v-42.42Z" fill="#394046"/><path d="M445.39 263.34h-42.42v42.42h42.42v-42.42Z" fill="#45464B"/><path d="M495.84 263.34h-42.42v42.42h42.42v-42.42Z" fill="#5D5D63"/><path d="M546.73 263.34h-42.42v42.42h42.42v-42.42Z" fill="#596E6A"/><path d="M597.18 263.34h-42.42v42.42h42.42v-42.42Z" fill="#303668"/><path d="M647.63 263.34h-42.42v42.42h42.42v-42.42Z" fill="#32384E"/><path d="M698.07 263.34h-42.42v42.42h42.42v-42.42Z" fill="#282826"/><path d="M748.52 263.34H706.1v42.42h42.42v-42.42Z" fill="#3E3E3E"/><path d="M798.36 263.34h-42.42v42.42h42.42v-42.42Z" fill="#323333"/><path d="M848.81 263.34h-42.42v42.42h42.42v-42.42Z" fill="#EBECEE"/><path d="M899.26 263.34h-42.42v42.42h42.42v-42.42Zm50.45 0h-42.42v42.42h42.42v-42.42Z" fill="#EAEBED"/></svg>