<svg xmlns="http://www.w3.org/2000/svg" viewBox="0 0 455.92 29.07"><path d="M23.28 3.55V.47h3.57v8.98H23.2c-.92-1.8-2.18-3.2-3.78-4.2-1.6-1-3.35-1.51-5.26-1.51s-3.5.49-4.95 1.46c-1.45.97-2.58 2.28-3.39 3.91S4.6 12.49 4.6 14.36s.42 3.72 1.27 5.36 2.02 2.94 3.51 3.92c1.49.98 3.14 1.47 4.97 1.47 2.24 0 4.23-.69 5.95-2.06 1.72-1.37 2.98-3.31 3.78-5.83l3.57 1.9c-.97 3.12-2.68 5.55-5.12 7.26-2.45 1.72-5.32 2.58-8.62 2.58-2.72 0-5.13-.65-7.23-1.94a13.52 13.52 0 0 1-4.92-5.23C.59 19.6 0 17.2 0 14.58c0-2.84.6-5.37 1.79-7.59 1.2-2.22 2.85-3.94 4.96-5.16C8.86.61 11.27 0 13.98 0c1.82 0 3.5.3 5.04.91s2.96 1.49 4.26 2.64Zm30.1 15.2c0 1.9-.45 3.63-1.36 5.21-.91 1.57-2.14 2.82-3.7 3.74s-3.29 1.38-5.19 1.38-3.73-.46-5.3-1.38-2.8-2.16-3.67-3.74c-.87-1.57-1.31-3.31-1.31-5.21s.44-3.76 1.31-5.32a9.4 9.4 0 0 1 3.65-3.67c1.56-.89 3.33-1.33 5.32-1.33s3.66.47 5.23 1.4c1.56.94 2.79 2.19 3.68 3.77.89 1.57 1.34 3.29 1.34 5.15Zm-10.25 6.58c1.14 0 2.19-.3 3.14-.89s1.7-1.4 2.23-2.4.8-2.1.8-3.29-.27-2.25-.8-3.25-1.28-1.81-2.23-2.43c-.96-.61-2.01-.92-3.18-.92s-2.19.3-3.14.9a6.27 6.27 0 0 0-2.25 2.43c-.55 1.02-.82 2.11-.82 3.27s.27 2.26.82 3.27c.54 1.02 1.3 1.82 2.27 2.42s2.02.89 3.16.89Zm33.68-9.99v9.73h3.27v3.42h-7.12V15.58c0-1.23-.18-2.11-.53-2.64s-.93-.8-1.74-.8c-1.71 0-3.63.84-5.76 2.53v10.4h3.37v3.42H57.7v-3.42h3.44V12.39H57.7V8.95h7.23v2.36c2.39-1.75 4.64-2.62 6.75-2.62 1.75 0 3.04.54 3.88 1.62.84 1.08 1.25 2.76 1.25 5.04Zm23.99.51v9.22h3.27v3.42h-6.66v-2.4c-1.86 1.82-3.93 2.73-6.21 2.73-1.2 0-2.3-.28-3.3-.84-1-.56-1.8-1.31-2.4-2.24s-.9-1.97-.9-3.12c0-1.23.33-2.32 1-3.28.66-.96 1.56-1.7 2.69-2.22 1.13-.52 2.26-.78 3.4-.78 1.91 0 3.69.56 5.34 1.67v-2.1c0-1.52-.32-2.62-.97-3.27-.65-.66-1.71-.99-3.18-.99-1.04 0-1.91.19-2.61.57-.7.38-1.28.95-1.74 1.72l-3.68-.91c.83-1.55 1.95-2.71 3.37-3.47 1.41-.76 3.09-1.14 5.04-1.14 2.62 0 4.53.6 5.74 1.79s1.81 3.07 1.81 5.64Zm-9.08 10.02c1.88 0 3.65-.79 5.3-2.36v-2.29c-1.67-1.3-3.35-1.95-5.02-1.95-1.02 0-1.89.32-2.63.96s-1.11 1.44-1.11 2.41.32 1.7.97 2.32 1.48.92 2.49.92Zm26-.8v3.42h-10.28v-3.42h3.46V3.85h-3.46V.47h7.31v24.6h2.98Zm14.12 0v3.42h-10.28v-3.42h3.46V3.85h-3.46V.47h7.31v24.6h2.98Zm16.41-15.29v-.84h3.35v6.49h-3.35v-1.19c-1.12-1.6-2.64-2.4-4.57-2.4-1.02 0-1.85.22-2.49.67-.65.45-.97 1.02-.97 1.73 0 .63.25 1.13.74 1.49.49.36 1.59.68 3.3.95l2.58.5c3.86.71 5.78 2.6 5.78 5.67 0 1.8-.7 3.24-2.09 4.33-1.39 1.09-3.25 1.64-5.55 1.64-.92 0-1.82-.13-2.71-.4-.89-.27-1.63-.6-2.22-1v1.06h-3.42v-6.7h3.42v.67c.19.94.71 1.7 1.57 2.27s1.86.86 3 .86c1.25 0 2.24-.22 2.96-.66.72-.44 1.08-1.09 1.08-1.96 0-.63-.29-1.11-.86-1.42-.57-.32-1.72-.64-3.44-.98l-1.99-.43c-1.97-.4-3.42-1.08-4.33-2.05-.92-.97-1.38-2.2-1.38-3.7 0-1.21.34-2.25 1.01-3.12s1.54-1.51 2.59-1.94 2.14-.65 3.25-.65c1.87 0 3.45.37 4.72 1.1Zm22.2-1.36c3.63 0 5.45 1.97 5.45 5.9v10.75h3.31v3.42h-7.16v-12.8c0-1.4-.2-2.39-.6-2.96-.4-.57-1.03-.86-1.87-.86-1.43 0-3.28.84-5.56 2.51v10.68h3.38v3.42h-10.73v-3.42h3.5V3.85h-3.5V.47h7.35v10.77c2.31-1.87 4.45-2.81 6.44-2.81Zm33.33 10.33c0 1.9-.45 3.63-1.36 5.21-.91 1.57-2.14 2.82-3.7 3.74-1.56.92-3.29 1.38-5.19 1.38s-3.73-.46-5.3-1.38c-1.58-.92-2.8-2.16-3.67-3.74-.87-1.57-1.31-3.31-1.31-5.21s.44-3.76 1.31-5.32a9.36 9.36 0 0 1 3.66-3.67c1.56-.89 3.33-1.33 5.32-1.33s3.66.47 5.23 1.4c1.56.94 2.79 2.19 3.68 3.77.89 1.57 1.34 3.29 1.34 5.15Zm-10.25 6.58c1.14 0 2.19-.3 3.14-.89.95-.6 1.7-1.4 2.23-2.4s.8-2.1.8-3.29-.27-2.25-.8-3.25-1.28-1.81-2.23-2.43c-.96-.61-2.02-.92-3.18-.92s-2.19.3-3.14.9c-.96.6-1.71 1.41-2.25 2.43s-.82 2.11-.82 3.27.27 2.26.82 3.27c.55 1.02 1.3 1.82 2.27 2.42.97.6 2.02.89 3.16.89Zm24.84-16.38v3.44h-3.57v10.25c0 1.07.12 1.76.34 2.07.23.32.62.47 1.18.47.68 0 1.36-.12 2.05-.35v3.48c-1.19.35-2.15.52-2.88.52-1.61 0-2.77-.41-3.48-1.22s-1.06-2.2-1.06-4.18V12.38h-2.55V8.94h2.55V5.98l3.85-3.52v6.47h3.57Zm40.11 3.92v3.2h-9.45v9.45h-3.16v-9.45h-9.45v-3.2h9.45V3.42h3.16v9.45h9.45Zm42.07-9.32V.47h3.57v8.98h-3.64c-.92-1.8-2.18-3.2-3.78-4.2-1.6-1-3.35-1.51-5.26-1.51s-3.5.49-4.95 1.46c-1.45.97-2.58 2.28-3.39 3.91-.81 1.63-1.22 3.38-1.22 5.25s.42 3.72 1.27 5.36 2.02 2.94 3.51 3.92c1.49.98 3.14 1.47 4.97 1.47 2.24 0 4.23-.69 5.95-2.06 1.72-1.37 2.98-3.31 3.78-5.83l3.57 1.9c-.97 3.12-2.67 5.55-5.12 7.26-2.45 1.72-5.32 2.58-8.62 2.58-2.72 0-5.13-.65-7.24-1.94a13.52 13.52 0 0 1-4.92-5.23c-1.17-2.19-1.76-4.59-1.76-7.21 0-2.84.6-5.37 1.79-7.59s2.85-3.94 4.96-5.16C286.13.61 288.54 0 291.25 0c1.82 0 3.5.3 5.04.91 1.54.61 2.96 1.49 4.26 2.64Zm22.58 4.87c3.63 0 5.45 1.97 5.45 5.9v10.75h3.31v3.42h-7.16v-12.8c0-1.4-.2-2.39-.6-2.96-.4-.57-1.03-.86-1.87-.86-1.43 0-3.28.84-5.56 2.51v10.68h3.38v3.42h-10.73v-3.42h3.5V3.85h-3.5V.47h7.35v10.77c2.31-1.87 4.45-2.81 6.43-2.81Zm33.34 10.33c0 1.9-.45 3.63-1.36 5.21-.91 1.57-2.14 2.82-3.7 3.74-1.56.92-3.29 1.38-5.19 1.38s-3.73-.46-5.3-1.38c-1.57-.92-2.8-2.16-3.67-3.74-.87-1.57-1.31-3.31-1.31-5.21s.44-3.76 1.31-5.32a9.4 9.4 0 0 1 3.65-3.67c1.56-.89 3.33-1.33 5.32-1.33s3.66.47 5.23 1.4c1.56.94 2.79 2.19 3.68 3.77.89 1.57 1.34 3.29 1.34 5.15Zm-10.25 6.58c1.14 0 2.19-.3 3.14-.89.96-.6 1.7-1.4 2.23-2.4s.8-2.1.8-3.29-.27-2.25-.8-3.25-1.28-1.81-2.23-2.43c-.95-.61-2.01-.92-3.18-.92s-2.19.3-3.14.9c-.95.6-1.7 1.41-2.25 2.43s-.82 2.11-.82 3.27.27 2.26.82 3.27c.55 1.02 1.3 1.82 2.27 2.42.97.6 2.02.89 3.16.89Zm30.14-14.97V8.95h3.42v7.4h-3.42c-.15-1.43-.72-2.51-1.71-3.26s-2.14-1.13-3.44-1.13c-1.12 0-2.12.3-3 .89-.89.59-1.57 1.4-2.05 2.42s-.73 2.13-.73 3.33c0 2.05.55 3.72 1.64 5.01s2.53 1.94 4.32 1.94c2.76 0 4.72-1.28 5.86-3.85l3.2 1.52c-1.8 3.89-4.87 5.84-9.22 5.84-1.95 0-3.68-.46-5.19-1.38s-2.68-2.18-3.51-3.78c-.83-1.6-1.24-3.37-1.24-5.32s.42-3.65 1.26-5.21c.84-1.56 1.99-2.78 3.45-3.65 1.46-.87 3.09-1.31 4.89-1.31 2.13 0 3.96.65 5.49 1.93Zm28.87 8.39c0 1.9-.45 3.63-1.36 5.21-.91 1.57-2.14 2.82-3.7 3.74-1.56.92-3.29 1.38-5.19 1.38s-3.73-.46-5.3-1.38c-1.57-.92-2.8-2.16-3.67-3.74-.87-1.57-1.31-3.31-1.31-5.21s.44-3.76 1.31-5.32a9.4 9.4 0 0 1 3.65-3.67c1.56-.89 3.33-1.33 5.32-1.33s3.66.47 5.23 1.4c1.56.94 2.79 2.19 3.68 3.77.89 1.57 1.34 3.29 1.34 5.15Zm-10.25 6.58c1.14 0 2.19-.3 3.14-.89.96-.6 1.7-1.4 2.23-2.4s.8-2.1.8-3.29-.27-2.25-.8-3.25-1.28-1.81-2.23-2.43c-.95-.61-2.01-.92-3.18-.92s-2.19.3-3.14.9c-.95.6-1.7 1.41-2.25 2.43s-.82 2.11-.82 3.27.27 2.26.82 3.27c.55 1.02 1.3 1.82 2.27 2.42.97.6 2.02.89 3.16.89Zm33.67-9.99v9.73h3.27v3.42h-7.12V15.58c0-1.23-.18-2.11-.53-2.64s-.93-.8-1.74-.8c-1.71 0-3.63.84-5.77 2.53v10.4h3.37v3.42h-10.6v-3.42h3.44V12.39h-3.44V8.95h7.23v2.36c2.39-1.75 4.64-2.62 6.75-2.62 1.75 0 3.04.54 3.88 1.62.84 1.08 1.26 2.76 1.26 5.04Zm24 .51v9.22h3.27v3.42h-6.66v-2.4c-1.86 1.82-3.93 2.73-6.21 2.73-1.2 0-2.3-.28-3.3-.84-1-.56-1.8-1.31-2.4-2.24s-.9-1.97-.9-3.12c0-1.23.33-2.32.99-3.28.66-.96 1.56-1.7 2.69-2.22 1.13-.52 2.26-.78 3.4-.78 1.91 0 3.69.56 5.34 1.67v-2.1c0-1.52-.32-2.62-.97-3.27-.65-.66-1.71-.99-3.18-.99-1.04 0-1.91.19-2.61.57-.7.38-1.28.95-1.74 1.72l-3.68-.91c.83-1.55 1.95-2.71 3.37-3.47s3.09-1.14 5.04-1.14c2.62 0 4.53.6 5.74 1.79s1.81 3.07 1.81 5.64Zm-9.08 10.02c1.88 0 3.65-.79 5.3-2.36v-2.29c-1.67-1.3-3.35-1.95-5.02-1.95-1.02 0-1.89.32-2.63.96-.74.64-1.11 1.44-1.11 2.41s.32 1.7.97 2.32c.64.61 1.47.92 2.49.92Z" style="fill:#fff;stroke-width:0"/></svg>