<svg xmlns="http://www.w3.org/2000/svg" viewBox="0 0 93.78 93.78"><circle cx="46.89" cy="46.89" r="46.89" style="stroke-width:0;fill:#54509d"/><path d="M23.74 51.7c0 1.56-1.17 2.67-2.67 2.67s-2.67-.85-2.67-2.67v-1.29c0-.25.16-.3.76-.3.55 0 .78.02.78.25v1.26c0 .57.3 1.2 1.13 1.2.99 0 1.17-.74 1.17-1.26v-1.4c0-1.22-.9-2.51-1.82-3.79-.97-1.36-2.05-2.83-2.05-4.19v-1.17c0-1.2.71-2.74 2.62-2.74 1.75 0 2.62 1.54 2.62 2.71v1.06c0 .18-.28.18-.8.18-.44 0-.74 0-.74-.21v-1.08c0-.76-.57-1.24-1.08-1.24-.64 0-1.13.64-1.13 1.22v1.26c0 .87.9 2.05 1.77 3.27 1.01 1.4 2.09 3.01 2.09 4.74v1.52Zm10.05 2.43c0 .21-.09.23-.67.23-.71 0-.85-.05-.85-.23v-7.89c0-.83 0-1.49-.87-1.49-.64 0-.69.53-.69 1.38v8c0 .23-.3.23-.74.23-.51 0-.78-.05-.78-.23v-8.07c0-.64-.07-1.31-.8-1.31-.64 0-.78.53-.78 1.38v8c0 .18-.09.23-.78.23-.62 0-.71-.05-.71-.23V43.51c0-.16.09-.18.67-.18.67 0 .74 0 .74.23 0 .18.02.76.05.69.07-.28.55-.92 1.06-.92 1.31 0 1.31.85 1.43.85.14 0 .3-.85 1.49-.85 2.05 0 2.25 1.2 2.25 2.92v7.89Zm7.86-.02c0 .25-.07.25-.76.25-.53 0-.69 0-.69-.21 0-.18.07-.41-.14-.41-.14 0-.18.62-1.08.62-1.52 0-2.67-1.01-2.67-2.87v-5.4c0-1.72 1.17-2.81 2.67-2.81.23 0 .57 0 .92.34.18.18.25.18.25-.23 0-.16.16-.14.71-.14.69 0 .78.05.78.28v10.58Zm-1.52-2.69v-5.33c0-.64-.48-1.38-1.15-1.38s-1.17.74-1.17 1.38v5.33c0 .97.48 1.4 1.17 1.4s1.15-.48 1.15-1.4Zm5.64 2.57c0 .35-.09.37-.78.37-.55 0-.69 0-.69-.32V38.63c0-.3.21-.35.69-.35s.78.02.78.37v15.34Zm4.23 0c0 .35-.09.37-.78.37-.55 0-.69 0-.69-.32V38.63c0-.3.21-.35.69-.35s.78.02.78.37v15.34Zm11.34-.32c0 .58-.02.69-.32.69h-3.43c-.25 0-.51-.02-.6-.16-.11-.18-.09-.53-.09-.83V38.56c0-.35.23-.3.69-.3.6 0 .8 0 .8.35v13.54c0 .3-.05.67.16.83.09.05.34.07.53.07h1.93c.3 0 .32.18.32.62Zm7.41-2.18c0 2.05-1.13 2.87-2.67 2.87s-2.67-1.01-2.67-2.87v-5.4c0-1.72 1.17-2.81 2.67-2.81s2.67 1.2 2.67 2.81v5.4Zm-1.52-.07v-5.33c0-.64-.48-1.38-1.15-1.38s-1.17.74-1.17 1.38v5.33c0 .97.48 1.4 1.17 1.4s1.15-.48 1.15-1.4Zm7.18 2.23c0 .51.02.71-.12.71-1.75 0-2.67-1.01-2.67-2.35v-6.69c0-.39-.09-.57-.64-.57-.23 0-.28-.21-.28-.53 0-.46.05-.6.25-.6.64 0 .67-.14.67-.51v-1.17c0-.28.14-.28.69-.28.62 0 .8 0 .8.32v1.13c0 .37.09.44.85.44.28 0 .34.14.34.6 0 .55-.02.64-.25.64-.83 0-.94.11-.94.53v6.69c0 .58.48.92 1.17.92.12 0 .12.25.12.71Z" style="stroke-width:0;fill:#fff"/></svg>