<svg xmlns="http://www.w3.org/2000/svg" viewBox="0 0 93.78 93.78"><circle cx="46.89" cy="46.89" r="46.89" style="stroke-width:0;fill:#46d270"/><path d="M14.48 53.88c0 .41.02.46-.74.46-.69 0-.76-.02-.76-.46V47.6c0-.28.02-.74-.14-.78-.25-.14-1.98-.05-2.07.02-.21.14-.16.53-.16.83v6.3c0 .37-.14.37-.78.37-.6 0-.69 0-.69-.32V38.71c0-.3.09-.41.69-.41.64 0 .8.09.8.44v5.43c0 .39-.07.85.28 1.04.18.07 1.68.14 1.91 0 .21-.14.16-.62.16-.97v-5.59c0-.41.18-.35.74-.35.64 0 .76 0 .76.37v15.22Zm4.6-13.66c.05.58.02 1.01-.92 1.1-.58.05-1.04-.55-.97-1.15.05-.51.18-.99.97-.94.53.02.9.46.92.99Zm-.18 13.73c0 .41-.05.41-.78.41-.64 0-.69 0-.69-.37V43.67c0-.34.16-.37.69-.37.6 0 .78-.02.78.39v10.26Zm2.71 2.14c0-.14.16-.11.71-.11s.78-.07.78.11c0 .78.41 1.33 1.17 1.33.85 0 1.15-.74 1.15-1.4v-1.59c0-.44-.07-.55-.21-.48-.25.16-.28.41-.94.41-1.4 0-2.67-.94-2.67-2.81V46.1c0-1.59.94-2.83 2.78-2.83.74 0 .85.57 1.08.64.18.05.21-.09.21-.44 0-.14.05-.14.6-.14.48 0 .67.02.67.18v12.56c0 1.7-.78 2.87-2.67 2.87-1.7 0-2.67-1.22-2.67-2.87Zm3.82-4.67v-5.33c0-.64-.48-1.38-1.15-1.38-.74 0-1.17.74-1.17 1.38v5.33c0 .94.48 1.4 1.17 1.4s1.15-.46 1.15-1.4Zm9.61 2.74c0 .21-.32.21-.71.21-.51 0-.8 0-.8-.18V46.1c0-.67-.48-1.38-1.15-1.38s-1.17.71-1.17 1.38v8.05c0 .25-.35.23-.83.23-.34 0-.67 0-.67-.23V38.47c0-.18.28-.21.69-.21.51 0 .8-.02.8.18v4.74c0 .35.16.48.32.41.44-.21.62-.3.85-.3 1.59 0 2.67 1.2 2.67 2.87v8Zm11.89 4.59c0 .21-.23.21-.67.21-.55 0-.83 0-.83-.18v-4.23c0-.35-.16-.46-.32-.41-.44.21-.64.23-.85.23-1.52 0-2.67-.94-2.67-2.81v-5.47c0-1.72 1.17-2.81 2.67-2.81 1.06 0 1.01.83 1.1.76.18-.09.14-.35.14-.48 0-.21.12-.23.74-.23.51 0 .69 0 .69.21v15.22Zm-1.52-7.34v-5.33c0-.64-.48-1.38-1.15-1.38s-1.17.74-1.17 1.38v5.33c0 .97.48 1.4 1.17 1.4s1.15-.48 1.15-1.4Zm9.5 2.79c0 .16-.09.16-.67.16-.51 0-.74-.02-.74-.16 0-.18-.02-.46-.02-.62 0-.3.02-.46-.12-.21-.32.55-.87 1.01-1.5 1.01-1.52 0-2.3-.87-2.3-2.92v-7.91c0-.21.21-.23.67-.23.64 0 .83.05.83.21v7.93c0 .6.14 1.49.8 1.49.97 0 1.54-.6 1.54-1.38v-8c0-.21.12-.23.74-.23s.76.07.76.23v10.62Zm7.99-.09c0 .25-.07.25-.76.25-.53 0-.69 0-.69-.21 0-.18.07-.41-.14-.41-.14 0-.18.62-1.08.62-1.52 0-2.67-1.01-2.67-2.87v-5.4c0-1.72 1.17-2.81 2.67-2.81.23 0 .57 0 .92.34.18.18.25.18.25-.23 0-.16.16-.14.71-.14.69 0 .78.05.78.28v10.58Zm-1.52-2.69v-5.33c0-.64-.48-1.38-1.15-1.38s-1.17.74-1.17 1.38v5.33c0 .97.48 1.4 1.17 1.4s1.15-.48 1.15-1.4Zm5.63 2.57c0 .35-.09.37-.78.37-.55 0-.69 0-.69-.32V38.63c0-.3.21-.35.69-.35s.78.02.78.37v15.34Zm4.49-13.77c.05.58.02 1.01-.92 1.1-.57.05-1.04-.55-.96-1.15.04-.51.18-.99.96-.94.53.02.9.46.92.99Zm-.18 13.73c0 .41-.05.41-.78.41-.64 0-.69 0-.69-.37V43.67c0-.34.16-.37.69-.37.6 0 .78-.02.78.39v10.26Zm5.84-.3c0 .51.02.71-.12.71-1.75 0-2.67-1.01-2.67-2.35v-6.69c0-.39-.09-.57-.64-.57-.23 0-.28-.21-.28-.53 0-.46.05-.6.25-.6.64 0 .67-.14.67-.51v-1.17c0-.28.14-.28.69-.28.62 0 .8 0 .8.32v1.13c0 .37.09.44.85.44.28 0 .35.14.35.6 0 .55-.02.64-.25.64-.83 0-.94.11-.94.53v6.69c0 .58.48.92 1.17.92.12 0 .12.25.12.71Zm7.01-10c-1.15 5.52-2.12 10.09-3.15 15.02-.05.28-.16.3-.76.3-.48 0-.64-.02-.58-.37.34-1.63.58-2.71.9-4.3.07-.3.04-.37.04-.83 0-.48-.02-.48-.07-.76-.67-3.38-1.1-5.7-1.79-9.13-.05-.23.14-.25.76-.25s.76.02.8.32c.35 2.28.67 4.37.99 6.51 0 .07.02.23.14.23.14 0 .14-.16.16-.25.37-2.28.69-4.23 1.06-6.53.05-.25.14-.28.83-.28.53 0 .71.07.67.32Z" style="stroke-width:0;fill:#fff"/></svg>