<svg xmlns="http://www.w3.org/2000/svg" viewBox="0 0 93.78 93.78"><circle cx="46.89" cy="46.89" r="46.89" style="stroke-width:0;fill:#a05399"/><path d="M24.19 50.13c0 .58-.02.69-.32.69h-3.43c-.25 0-.51-.02-.6-.16-.12-.18-.09-.53-.09-.83V35.02c0-.35.23-.3.69-.3.6 0 .8 0 .8.35v13.54c0 .3-.04.67.16.83.09.05.34.07.53.07h1.93c.3 0 .32.18.32.62Zm7.41-2.18c0 2.05-1.13 2.87-2.67 2.87s-2.67-1.01-2.67-2.87v-5.4c0-1.72 1.17-2.81 2.67-2.81s2.67 1.2 2.67 2.81v5.4Zm-1.52-.07v-5.33c0-.64-.48-1.38-1.15-1.38s-1.17.74-1.17 1.38v5.33c0 .97.48 1.4 1.17 1.4s1.15-.48 1.15-1.4Zm11.8-7.77c-.64 4.19-1.08 7.17-1.61 10.49-.04.34-.41.25-.9.23-.3-.02-.74 0-.78-.3-.25-1.66-.44-3.15-.71-5.06-.02-.09-.02-.25-.16-.25-.11 0-.14.16-.14.23-.28 2-.46 3.29-.71 5.17-.05.3-.32.23-.8.21-.3-.02-.78 0-.83-.3-.48-3.2-1.06-6.97-1.56-10.3-.04-.23-.16-.39.55-.39.83 0 .76.07.8.37.37 2.97.53 4.37.85 6.92 0 .07.02.23.14.23.14 0 .14-.16.16-.25.39-2.87.6-4.62.92-7.01.02-.21 0-.28.6-.28s.64.02.67.28c.3 2.39.57 4.48.9 7.04 0 .07.02.23.14.23.14 0 .14-.16.16-.25.37-2.76.64-4.55.97-7.06.02-.21.04-.25.62-.25.74 0 .78.05.74.32Zm11.43 7.84c0 1.66-.78 2.9-2.67 2.9s-2.67-1.36-2.67-2.9v-5.33c0-1.77 1.1-2.87 2.67-2.87s2.67 1.15 2.67 2.9c0 .16-.09.21-.71.21-.58 0-.81-.02-.81-.14 0-.92-.51-1.54-1.15-1.54-.69 0-1.17.74-1.17 1.38v5.33c0 .69.28 1.4 1.17 1.4.94 0 1.15-.81 1.15-1.4 0-.09.16-.09.76-.09s.76.02.76.16Zm7.75 0c0 2.05-1.13 2.87-2.67 2.87s-2.67-1.01-2.67-2.87v-5.4c0-1.72 1.17-2.81 2.67-2.81s2.67 1.2 2.67 2.81v5.4Zm-1.52-.07v-5.33c0-.64-.48-1.38-1.15-1.38s-1.17.74-1.17 1.38v5.33c0 .97.48 1.4 1.17 1.4s1.15-.48 1.15-1.4Zm8.93.27c0 1.56-1.06 2.67-2.55 2.67s-2.55-.85-2.55-2.67c0-.16.25-.18.71-.18.41 0 .83-.02.83.12 0 .57.18 1.2 1.01 1.2.99 0 1.06-.74 1.06-1.26 0-1.13-.78-1.82-1.7-2.53-.97-.76-1.84-1.56-1.84-2.97 0-1.2.55-2.74 2.46-2.74 1.75 0 2.46 1.54 2.46 2.71 0 .14-.23.14-.8.14s-.74-.07-.74-.18c0-.76-.41-1.24-.92-1.24-.64 0-.97.64-.97 1.22 0 .8.64 1.38 1.47 2.07 1.03.83 2.07 1.84 2.07 3.66Zm5.43 1.96c0 .51.02.71-.12.71-1.75 0-2.67-1.01-2.67-2.35v-6.69c0-.39-.09-.57-.64-.57-.23 0-.28-.21-.28-.53 0-.46.05-.6.25-.6.64 0 .67-.14.67-.51V38.4c0-.28.14-.28.69-.28.62 0 .8 0 .8.32v1.13c0 .37.09.44.85.44.28 0 .34.14.34.6 0 .55-.02.64-.25.64-.83 0-.94.11-.94.53v6.69c0 .58.48.92 1.17.92.12 0 .12.25.12.71Z" style="stroke-width:0;fill:#fff"/></svg>