<svg xmlns="http://www.w3.org/2000/svg" viewBox="0 0 126.06 98.75"><path d="M58.69 87.96V98.3c-1.65.07-3.21.13-4.83.2-.04-.47-.1-.79-.1-1.11.05-3.78.13-7.56.15-11.34 0-1.22.45-2.1 1.56-2.6 1.18-.54 2.38-.53 3.43.28.51.4.95.94 1.3 1.49 1.61 2.52 3.18 5.07 4.77 7.61.22.35.45.68.77 1.15.45-.99.16-1.88.19-2.74.03-.87-.02-1.74-.03-2.62-.02-.91-.06-1.83-.07-2.74-.01-.87 0-1.73 0-2.69h4.59c.04.31.08.51.08.71 0 3.78 0 7.56.01 11.35 0 1.01-.27 1.88-1.12 2.52-1.34 1-3.03.83-4.12-.52-.76-.93-1.42-1.95-2.08-2.96-1.28-1.95-2.52-3.92-3.78-5.87-.13-.2-.29-.37-.44-.56-.09.03-.18.06-.28.09ZM46.15 98.48v-6.15c-2.44-.14-4.79-.06-7.27-.04v5.96c-1.12.4-3.81.49-5.13.18v-3.81c.01-1.91.19-3.84.02-5.73-.25-2.81 3.08-6.19 5.88-5.89 1.86.2 3.75.13 5.63.03 2.99-.16 5.52 2.81 5.39 5.38-.15 2.82 0 5.65.03 8.47v1.54c-1.48.08-2.91.05-4.54.04Zm-7.42-8.02h7.01v-2.58c0-.37.02-.75-.02-1.12-.13-1.27-.64-1.82-1.88-1.88-1.12-.06-2.25-.06-3.37.03-1.19.09-1.7.68-1.73 1.87-.03 1.2 0 2.4 0 3.69Zm59.04 1.05v7.19h-4.39V83.05h4.37v6.48c2.62.31 5.08.07 7.64.2v-6.71h4.65c0 5.27.04 10.44-.11 15.68h-4.5v-7.19h-7.65Zm-7.45-.82c0 .96-.02 1.91 0 2.87.03.88-.26 1.62-.79 2.3-1.44 1.84-3.23 2.96-5.65 2.88-1.29-.04-2.59.02-3.88 0-2.42-.05-4.31-1.2-5.79-3.01-.39-.48-.66-1.2-.68-1.81-.07-2.24-.05-4.48.01-6.72.05-1.96 2.45-4.29 4.41-4.21 2.66.11 5.34 0 8 .05 2.08.04 4.23 2.21 4.31 4.3.04 1.12 0 2.24 0 3.36h.05Zm-4.77.09c0-1.29.05-2.58-.01-3.86-.06-1.4-.84-2.1-2.24-2.12-.92-.02-1.84 0-2.75 0-1.57.01-2.32.55-2.38 2.08-.1 2.57-.09 5.15 0 7.72.04 1.33.93 2.1 2.28 2.18.87.05 1.75.03 2.63 0 1.55-.04 2.46-.95 2.49-2.5.02-1.16 0-2.33 0-3.49Zm-70.73 7.79v-1.66h3.28c1.92 0 3.84.02 5.76.02 1.6 0 1.98-.28 2.4-1.8.14-.51.18-1.07.14-1.6-.1-1.25-.67-1.77-1.93-1.8-1.96-.04-3.92-.03-5.88-.07-2.3-.05-3.48-1.02-4.03-3.29-.4-1.63-.16-3.14.99-4.43.47-.52 1.04-.82 1.76-.83 4.3-.01 8.6-.03 12.89-.03.08 0 .15.06.32.12v1.26h-9.28c-1.6 0-2.19.51-2.31 2.11-.05.68.04 1.42.26 2.06.27.79.86 1.23 1.82 1.19 1.96-.07 3.92-.02 5.88-.02 2.66 0 3.79 1.67 4.32 3.3.15.45.19.99.11 1.46-.36 2.06-2.33 3.9-4.43 3.94-3.96.08-7.92.02-12.08.02Z" style="stroke-width:0;fill:#fff"/><path d="M55.28 67.46C-58.09 89.2 25.51-17.39 104.92 2.48c-64.5 1.76-116.9 66.28-49.64 64.98Z" style="fill:#00abbe;stroke-width:0"/><path d="M79.16 60.21C-6.52 80.17 48.86-8 119.21 8.75 84.27 5.07 17.25 59.14 79.16 60.21Z" style="fill:#0073bd;stroke-width:0"/><path d="M57.77 49.63c50.15-38.98 113.01-8.44 22.1 28.28 45.75-28.88 18.66-45.63-22.1-28.28Z" style="stroke-width:0;fill:#e3032b"/></svg>