<svg xmlns="http://www.w3.org/2000/svg" viewBox="0 0 677.83 57.6"><path d="M13.33 43.01c0 1.41-.06 1.79-.77 1.79h-9.6c-1.02 0-2.11.13-2.56-.26-.51-.45-.38-1.41-.38-2.18V1.92c-.01-.83.06-.89.44-1.4C.85 0 1.29 0 1.93 0h10.62c.77 0 .77.77.77 1.92 0 1.22 0 1.73-.83 1.73h-6.4c-.51 0-1.28.06-1.47.32-.32.45-.32.38-.32 1.22v12.16c0 .58-.13 1.28.38 1.66.45.32.9.26 1.41.26H9.1c.77 0 .9.51.9 1.86s-.06 1.79-.9 1.79H6.22c-.64 0-1.34.06-1.6.19-.58.38-.45 1.02-.45 1.86v13.76c0 .83 0 2.05.32 2.24.32.19 1.22.26 1.92.26h6.08c.77 0 .83.38.83 1.79Zm20.92 1.09c0 .7-.19.7-2.11.7-1.47 0-1.92 0-1.92-.58 0-.51.19-1.15-.38-1.15-.38 0-.51 1.73-3.01 1.73-4.22 0-7.42-2.82-7.42-8V21.76c0-4.8 3.26-7.81 7.42-7.81.64 0 1.6 0 2.56.96.51.51.7.51.7-.64 0-.45.45-.38 1.98-.38 1.92 0 2.18.13 2.18.77V44.1Zm-4.22-7.49V21.76c0-1.79-1.34-3.84-3.2-3.84s-3.26 2.05-3.26 3.84v14.85c0 2.69 1.34 3.9 3.26 3.9s3.2-1.34 3.2-3.9Zm24.83.77c0 4.35-2.94 7.42-7.1 7.42s-7.1-2.37-7.1-7.42c0-.45.7-.51 1.98-.51 1.15 0 2.3-.06 2.3.32 0 1.6.51 3.33 2.82 3.33 2.75 0 2.94-2.05 2.94-3.52 0-3.14-2.18-5.06-4.74-7.04-2.69-2.11-5.12-4.35-5.12-8.26 0-3.33 1.54-7.62 6.85-7.62 4.86 0 6.85 4.29 6.85 7.55 0 .38-.64.38-2.24.38s-2.05-.19-2.05-.51c0-2.11-1.15-3.46-2.56-3.46-1.79 0-2.69 1.79-2.69 3.39 0 2.24 1.79 3.84 4.1 5.76 2.88 2.3 5.76 5.12 5.76 10.18Zm19.84-22.4c-3.2 15.36-5.89 28.09-8.77 41.79-.13.77-.45.83-2.11.83-1.34 0-1.79-.06-1.6-1.02.96-4.54 1.6-7.55 2.5-11.97.19-.83.13-1.02.13-2.3 0-1.34-.06-1.34-.19-2.11-1.86-9.41-3.07-15.87-4.99-25.41-.13-.64.38-.7 2.11-.7s2.11.06 2.24.9c.96 6.34 1.86 12.16 2.75 18.11 0 .19.06.64.38.64.38 0 .38-.45.45-.7 1.02-6.34 1.92-11.78 2.94-18.17.13-.7.38-.77 2.3-.77 1.47 0 1.98.19 1.86.9Zm32.13 22.33c0 4.03-2.18 7.49-7.42 7.49s-7.42-4.03-7.42-7.42V7.55C91.98 4.1 94.41 0 99.4 0c5.31 0 7.42 4.8 7.42 7.55v2.88c0 .64-.96.7-2.11.7-1.28 0-2.18.06-2.18-.7V7.42c0-1.41-1.22-3.46-3.14-3.46s-3.26 1.92-3.26 3.39v29.63c0 1.79.9 3.52 3.26 3.52 2.18 0 3.14-1.6 3.14-3.33v-3.78c0-.51.83-.51 1.98-.51 1.54 0 2.3-.13 2.3.51v3.9Zm21.24 6.79c0 .7-.19.7-2.11.7-1.47 0-1.92 0-1.92-.58 0-.51.19-1.15-.38-1.15-.38 0-.51 1.73-3.01 1.73-4.22 0-7.42-2.82-7.42-8V21.76c0-4.8 3.26-7.81 7.42-7.81.64 0 1.6 0 2.56.96.51.51.7.51.7-.64 0-.45.45-.38 1.98-.38 1.92 0 2.18.13 2.18.77V44.1Zm-4.22-7.49V21.76c0-1.79-1.34-3.84-3.2-3.84s-3.26 2.05-3.26 3.84v14.85c0 2.69 1.34 3.9 3.26 3.9s3.2-1.34 3.2-3.9Zm20.93-20.42c0 1.28-.06 2.05-.38 2.05-1.79 0-4.8 1.6-4.8 3.97v21.95c0 .64-.58.64-2.24.64-1.41 0-1.92-.06-1.92-.64V14.59c0-.45.32-.45 2.05-.45 1.47 0 1.86-.06 1.86.45s.06 1.28.06 1.73c0 .83-.06 1.22.26.51.83-1.79 3.39-2.88 4.74-2.88.45 0 .38.7.38 2.24Zm14.21 26.63c0 1.41.06 1.98-.32 1.98-4.86 0-7.42-2.82-7.42-6.53V19.65c0-1.09-.26-1.6-1.79-1.6-.64 0-.77-.58-.77-1.47 0-1.28.13-1.66.7-1.66 1.79 0 1.86-.38 1.86-1.41v-3.26c0-.77.38-.77 1.92-.77 1.73 0 2.24 0 2.24.9v3.14c0 1.02.26 1.22 2.37 1.22.77 0 .96.38.96 1.66 0 1.54-.06 1.79-.7 1.79-2.3 0-2.62.32-2.62 1.47v18.62c0 1.6 1.34 2.56 3.26 2.56.32 0 .32.7.32 1.98Zm15.74-26.63c0 1.28-.06 2.05-.38 2.05-1.79 0-4.8 1.6-4.8 3.97v21.95c0 .64-.58.64-2.24.64-1.41 0-1.92-.06-1.92-.64V14.59c0-.45.32-.45 2.05-.45 1.47 0 1.86-.06 1.86.45s.06 1.28.06 1.73c0 .83-.06 1.22.26.51.83-1.79 3.39-2.88 4.74-2.88.45 0 .38.7.38 2.24Zm10.62-10.75c.13 1.6.06 2.82-2.56 3.07-1.6.13-2.88-1.54-2.69-3.2.13-1.41.51-2.75 2.69-2.62 1.47.06 2.5 1.28 2.56 2.75Zm-.51 38.21c0 1.15-.13 1.15-2.18 1.15-1.79 0-1.92 0-1.92-1.02V15.04c0-.96.45-1.02 1.92-1.02 1.66 0 2.18-.06 2.18 1.09v28.54Zm22.4.64c0 .58-.83.51-2.18.51-1.15 0-1.79.19-1.79-.32 0-.38.13-1.41-.45-1.41-.38 0-.51 1.73-3.01 1.73-5.12 0-7.42-3.33-7.42-7.74v-15.1c0-4.67 3.07-8 7.42-8 .64 0 1.15.26 2.37.83.45.19.9-.19.9-1.15V.45c0-.45.26-.45 2.05-.45s2.11.13 2.11.51v43.77Zm-4.22-7.68V21.76c0-1.79-1.34-3.84-3.2-3.84s-3.26 2.05-3.26 3.84v14.85c0 2.69 1.34 3.9 3.26 3.9s3.2-1.34 3.2-3.9ZM214.6 49.6c0-.38.45-.32 1.98-.32s2.18-.19 2.18.32c0 2.18 1.15 3.71 3.26 3.71 2.37 0 3.2-2.05 3.2-3.9v-4.42c0-1.22-.19-1.54-.58-1.34-.7.45-.77 1.15-2.62 1.15-3.9 0-7.42-2.62-7.42-7.81V21.82c0-4.42 2.62-7.87 7.74-7.87 2.05 0 2.37 1.6 3.01 1.79.51.13.58-.26.58-1.22 0-.38.13-.38 1.66-.38 1.34 0 1.86.06 1.86.51v34.94c0 4.74-2.18 8-7.42 8-4.74 0-7.42-3.39-7.42-8Zm10.62-12.99V21.76c0-1.79-1.34-3.84-3.2-3.84-2.05 0-3.26 2.05-3.26 3.84v14.85c0 2.62 1.34 3.9 3.26 3.9s3.2-1.28 3.2-3.9Zm26.44.19c0 5.7-3.14 8-7.42 8s-7.42-2.88-7.42-8V21.76c0-4.8 3.26-7.81 7.42-7.81s7.42 3.33 7.42 7.81v7.87c0 .45.06 1.02-1.22 1.02h-8.77c-.32 0-.7.38-.7 1.15v4.8c0 2.56 1.34 3.9 3.26 3.9s3.2-1.34 3.2-3.9c0-.26.32-.38 2.24-.38 1.66 0 1.98.06 1.98.58Zm-4.22-10.94v-4.1c0-1.98-1.34-3.84-3.2-3.84s-3.26 1.98-3.26 3.84v4.1c0 .9.51.9 3.07.9 2.75 0 3.39 0 3.39-.9Zm37.94-8.64c0 1.47 0 3.58-2.3 6.27-2.18 2.43-5.25 2.75-7.23 2.75-.77 0-1.22.45-1.22 1.34v16.19c0 1.02-.45 1.02-2.18 1.02s-1.92 0-1.92-.9V1.99c0-.64.06-1.22.45-1.6.51-.45.96-.38 1.47-.38h3.84c2.18 0 4.8.51 6.72 2.24 1.92 1.79 2.37 3.97 2.37 6.66v8.32Zm-4.16.06V8.9c0-1.47-.19-2.56-1.34-3.71-.7-.7-1.54-.96-2.94-.96-.77 0-1.79 0-2.05.45-.19.38-.19.7-.19 1.09v14.27c0 .7-.13 1.54.45 1.86.32.19.9.13 1.47.13.77 0 2.18-.13 3.33-1.34 1.28-1.41 1.28-2.05 1.28-3.39Zm25.67 19.52c0 5.7-3.14 8-7.42 8s-7.42-2.82-7.42-8V21.76c0-4.8 3.26-7.81 7.42-7.81s7.42 3.33 7.42 7.81V36.8Zm-4.22-.19V21.76c0-1.79-1.34-3.84-3.2-3.84s-3.26 2.05-3.26 3.84v14.85c0 2.69 1.34 3.9 3.26 3.9s3.2-1.34 3.2-3.9Zm32.82-21.63c-1.79 11.65-3.01 19.97-4.48 29.18-.13.96-1.15.7-2.5.64-.83-.06-2.05 0-2.18-.83-.7-4.61-1.22-8.77-1.98-14.08-.06-.26-.06-.7-.45-.7-.32 0-.38.45-.38.64-.77 5.57-1.28 9.15-1.98 14.4-.13.83-.9.64-2.24.58-.83-.06-2.18 0-2.3-.83-1.34-8.9-2.94-19.39-4.35-28.67-.13-.64-.45-1.09 1.54-1.09 2.3 0 2.11.19 2.24 1.02 1.02 8.26 1.47 12.16 2.37 19.26 0 .19.06.64.38.64.38 0 .38-.45.45-.7 1.09-8 1.66-12.86 2.56-19.52.06-.58 0-.77 1.66-.77s1.79.06 1.86.77c.83 6.66 1.6 12.48 2.5 19.58 0 .19.06.64.38.64.38 0 .38-.45.45-.7 1.02-7.68 1.79-12.67 2.69-19.65.06-.58.13-.7 1.73-.7 2.05 0 2.18.13 2.05.9Zm20.61 29.31c0 .58-.83.51-2.18.51-1.15 0-1.79.19-1.79-.32 0-.38.13-1.41-.45-1.41-.38 0-.51 1.73-3.01 1.73-5.12 0-7.42-3.33-7.42-7.74v-15.1c0-4.67 3.07-8 7.42-8 .64 0 1.15.26 2.37.83.45.19.9-.19.9-1.15V.45c0-.45.26-.45 2.05-.45s2.11.13 2.11.51v43.77Zm-4.22-7.68V21.76c0-1.79-1.34-3.84-3.2-3.84s-3.26 2.05-3.26 3.84v14.85c0 2.69 1.34 3.9 3.26 3.9s3.2-1.34 3.2-3.9Zm26.43.19c0 5.7-3.14 8-7.42 8s-7.42-2.88-7.42-8V21.76c0-4.8 3.26-7.81 7.42-7.81s7.42 3.33 7.42 7.81v7.87c0 .45.06 1.02-1.22 1.02h-8.77c-.32 0-.7.38-.7 1.15v4.8c0 2.56 1.34 3.9 3.26 3.9s3.2-1.34 3.2-3.9c0-.26.32-.38 2.24-.38 1.66 0 1.98.06 1.98.58Zm-4.22-10.94v-4.1c0-1.98-1.34-3.84-3.2-3.84s-3.26 1.98-3.26 3.84v4.1c0 .9.51.9 3.07.9 2.75 0 3.39 0 3.39-.9Zm20.93-9.67c0 1.28-.06 2.05-.38 2.05-1.79 0-4.8 1.6-4.8 3.97v21.95c0 .64-.58.64-2.24.64-1.41 0-1.92-.06-1.92-.64V14.59c0-.45.32-.45 2.05-.45 1.47 0 1.86-.06 1.86.45s.06 1.28.06 1.73c0 .83-.06 1.22.26.51.83-1.79 3.39-2.88 4.74-2.88.45 0 .38.7.38 2.24Zm31.87 21.12c0 4.03-2.18 7.49-7.42 7.49s-7.42-4.03-7.42-7.42V7.55c0-3.46 2.43-7.55 7.42-7.55 5.31 0 7.42 4.8 7.42 7.55v2.88c0 .64-.96.7-2.11.7-1.28 0-2.18.06-2.18-.7V7.42c0-1.41-1.22-3.46-3.14-3.46s-3.26 1.92-3.26 3.39v29.63c0 1.79.9 3.52 3.26 3.52 2.18 0 3.14-1.6 3.14-3.33v-3.78c0-.51.83-.51 1.98-.51 1.54 0 2.3-.13 2.3.51v3.9Zm21.24-.51c0 5.7-3.14 8-7.42 8s-7.42-2.82-7.42-8V21.76c0-4.8 3.26-7.81 7.42-7.81s7.42 3.33 7.42 7.81V36.8Zm-4.22-.19V21.76c0-1.79-1.34-3.84-3.2-3.84s-3.26 2.05-3.26 3.84v14.85c0 2.69 1.34 3.9 3.26 3.9s3.2-1.34 3.2-3.9Zm26.11 7.49c0 .7-.19.7-2.11.7-1.47 0-1.92 0-1.92-.58 0-.51.19-1.15-.38-1.15-.38 0-.51 1.73-3.01 1.73-4.22 0-7.42-2.82-7.42-8V21.76c0-4.8 3.26-7.81 7.42-7.81.64 0 1.6 0 2.56.96.51.51.7.51.7-.64 0-.45.45-.38 1.98-.38 1.92 0 2.18.13 2.18.77V44.1Zm-4.22-7.49V21.76c0-1.79-1.34-3.84-3.2-3.84s-3.26 2.05-3.26 3.84v14.85c0 2.69 1.34 3.9 3.26 3.9s3.2-1.34 3.2-3.9Zm19.97 6.21c0 1.41.06 1.98-.32 1.98-4.86 0-7.42-2.82-7.42-6.53V19.65c0-1.09-.26-1.6-1.79-1.6-.64 0-.77-.58-.77-1.47 0-1.28.13-1.66.7-1.66 1.79 0 1.86-.38 1.86-1.41v-3.26c0-.77.38-.77 1.92-.77 1.73 0 2.24 0 2.24.9v3.14c0 1.02.26 1.22 2.37 1.22.77 0 .96.38.96 1.66 0 1.54-.06 1.79-.7 1.79-2.3 0-2.62.32-2.62 1.47v18.62c0 1.6 1.34 2.56 3.26 2.56.32 0 .32.7.32 1.98Zm11.2-37.38c.13 1.6.06 2.82-2.56 3.07-1.6.13-2.88-1.54-2.69-3.2.13-1.41.51-2.75 2.69-2.62 1.47.06 2.5 1.28 2.56 2.75Zm-.51 38.21c0 1.15-.13 1.15-2.18 1.15-1.79 0-1.92 0-1.92-1.02V15.04c0-.96.45-1.02 1.92-1.02 1.66 0 2.18-.06 2.18 1.09v28.54Zm22.71.57c0 .51-.32.58-1.92.58-1.79 0-2.24-.06-2.24-.51V22.21c0-2.05-.58-4.16-2.24-4.16-2.37 0-4.29 1.41-4.29 3.84v22.27c0 .58-.32.64-2.18.64-1.66 0-1.98-.06-1.98-.64V14.59c0-.45.19-.51 2.05-.51 1.73 0 1.86.06 1.86.51 0 2.24 0 3.01.38 2.3.9-1.54 2.43-2.82 4.16-2.82 4.22 0 6.4 2.5 6.4 8.13v22.01Zm7.04 5.38c0-.38.45-.32 1.98-.32s2.18-.19 2.18.32c0 2.18 1.15 3.71 3.26 3.71 2.37 0 3.2-2.05 3.2-3.9v-4.42c0-1.22-.19-1.54-.58-1.34-.7.45-.77 1.15-2.62 1.15-3.9 0-7.42-2.62-7.42-7.81V21.82c0-4.42 2.62-7.87 7.74-7.87 2.05 0 2.37 1.6 3.01 1.79.51.13.58-.26.58-1.22 0-.38.13-.38 1.66-.38 1.34 0 1.86.06 1.86.51v34.94c0 4.74-2.18 8-7.42 8-4.74 0-7.42-3.39-7.42-8Zm10.62-12.99V21.76c0-1.79-1.34-3.84-3.2-3.84-2.05 0-3.26 2.05-3.26 3.84v14.85c0 2.62 1.34 3.9 3.26 3.9s3.2-1.28 3.2-3.9Zm37.19.77c0 4.35-3.26 7.42-7.42 7.42s-7.42-2.37-7.42-7.42V33.8c0-.7.45-.83 2.11-.83 1.54 0 2.18.06 2.18.7v3.52c0 1.6.83 3.33 3.14 3.33 2.75 0 3.26-2.05 3.26-3.52v-3.9c0-3.39-2.5-6.98-5.06-10.56-2.69-3.78-5.7-7.87-5.7-11.65V7.63c0-3.33 1.98-7.62 7.3-7.62 4.86 0 7.3 4.29 7.3 7.55v2.94c0 .51-.77.51-2.24.51-1.22 0-2.05 0-2.05-.58V7.42c0-2.11-1.6-3.46-3.01-3.46-1.79 0-3.14 1.79-3.14 3.39v3.52c0 2.43 2.5 5.7 4.93 9.09 2.82 3.9 5.82 8.38 5.82 13.18v4.22Zm19.71-22.4c-3.2 15.36-5.89 28.09-8.77 41.79-.13.77-.45.83-2.11.83-1.34 0-1.79-.06-1.6-1.02.96-4.54 1.6-7.55 2.5-11.97.19-.83.13-1.02.13-2.3 0-1.34-.06-1.34-.19-2.11-1.86-9.41-3.07-15.87-4.99-25.41-.13-.64.38-.7 2.11-.7s2.11.06 2.24.9c.96 6.34 1.86 12.16 2.75 18.11 0 .19.06.64.38.64.38 0 .38-.45.45-.7 1.02-6.34 1.92-11.78 2.94-18.17.13-.7.38-.77 2.3-.77 1.47 0 1.98.19 1.86.9Zm19.33 22.4c0 4.35-2.94 7.42-7.1 7.42s-7.1-2.37-7.1-7.42c0-.45.7-.51 1.98-.51 1.15 0 2.3-.06 2.3.32 0 1.6.51 3.33 2.82 3.33 2.75 0 2.94-2.05 2.94-3.52 0-3.14-2.18-5.06-4.74-7.04-2.69-2.11-5.12-4.35-5.12-8.26 0-3.33 1.54-7.62 6.85-7.62 4.86 0 6.85 4.29 6.85 7.55 0 .38-.64.38-2.24.38s-2.05-.19-2.05-.51c0-2.11-1.15-3.46-2.56-3.46-1.79 0-2.69 1.79-2.69 3.39 0 2.24 1.79 3.84 4.1 5.76 2.88 2.3 5.76 5.12 5.76 10.18Zm15.1 5.44c0 1.41.06 1.98-.32 1.98-4.86 0-7.42-2.82-7.42-6.53V19.65c0-1.09-.26-1.6-1.79-1.6-.64 0-.77-.58-.77-1.47 0-1.28.13-1.66.7-1.66 1.79 0 1.86-.38 1.86-1.41v-3.26c0-.77.38-.77 1.92-.77 1.73 0 2.24 0 2.24.9v3.14c0 1.02.26 1.22 2.37 1.22.77 0 .96.38.96 1.66 0 1.54-.06 1.79-.7 1.79-2.3 0-2.62.32-2.62 1.47v18.62c0 1.6 1.34 2.56 3.26 2.56.32 0 .32.7.32 1.98Zm20.93-6.02c0 5.7-3.14 8-7.42 8s-7.42-2.88-7.42-8V21.76c0-4.8 3.26-7.81 7.42-7.81s7.42 3.33 7.42 7.81v7.87c0 .45.06 1.02-1.22 1.02h-8.77c-.32 0-.7.38-.7 1.15v4.8c0 2.56 1.34 3.9 3.26 3.9s3.2-1.34 3.2-3.9c0-.26.32-.38 2.24-.38 1.66 0 1.98.06 1.98.58Zm-4.22-10.94v-4.1c0-1.98-1.34-3.84-3.2-3.84s-3.26 1.98-3.26 3.84v4.1c0 .9.51.9 3.07.9 2.75 0 3.39 0 3.39-.9Zm32.96 18.3c0 .58-.26.64-1.86.64-1.98 0-2.37-.13-2.37-.64V22.21c0-2.3 0-4.16-2.43-4.16-1.79 0-1.92 1.47-1.92 3.84v22.27c0 .64-.83.64-2.05.64-1.41 0-2.18-.13-2.18-.64V21.7c0-1.79-.19-3.65-2.24-3.65-1.79 0-2.18 1.47-2.18 3.84v22.27c0 .51-.26.64-2.18.64-1.73 0-1.98-.13-1.98-.64V14.59c0-.45.26-.51 1.86-.51 1.86 0 2.05 0 2.05.64 0 .51.06 2.11.13 1.92.19-.77 1.54-2.56 2.94-2.56 3.65 0 3.65 2.37 3.97 2.37.38 0 .83-2.37 4.16-2.37 5.7 0 6.27 3.33 6.27 8.13v21.95Z" style="fill:#fff;stroke-width:0"/></svg>